<?xml version="1.0" encoding="UTF-8"?>
<svg width="22px" height="22px" viewBox="0 0 22 22" version="1.1" xmlns="http://www.w3.org/2000/svg" xmlns:xlink="http://www.w3.org/1999/xlink">
    <!-- Generator: Sketch 52.1 (67048) - http://www.bohemiancoding.com/sketch -->
    <title>Combined Shape Copy 2</title>
    <desc>Created with Sketch.</desc>
    <g id="Web" stroke="none" stroke-width="1" fill="none" fill-rule="evenodd">
        <g id="Career-D" transform="translate(-389.000000, -1385.000000)" fill="#29B1CC">
            <g id="Group-2" transform="translate(0.000000, 1260.000000)">
                <path d="M403.245665,147 L403.245665,138.756585 L405.48503,138.756585 L405.775,135.843675 L403.246774,135.843675 L403.246774,134.131546 C403.246774,133.487923 403.659829,133.337897 403.950353,133.337897 L405.735081,133.337897 L405.735081,130.509735 L403.276159,130.5 C400.548337,130.5 399.927369,132.608954 399.927369,133.958615 L399.927369,135.843103 L398.35,135.843103 L398.35,138.756585 L399.927369,138.756585 L399.927369,147 L390.991155,147 C389.89147,147 389,146.110326 389,145.008845 L389,126.991155 C389,125.89147 389.889674,125 390.991155,125 L409.008845,125 C410.10853,125 411,125.889674 411,126.991155 L411,145.008845 C411,146.10853 410.110326,147 409.008845,147 L403.245665,147 Z" id="Combined-Shape-Copy-2"></path>
            </g>
        </g>
    </g>
</svg>