<?xml version="1.0" encoding="UTF-8"?>
<svg width="24px" height="23px" viewBox="0 0 24 23" version="1.1" xmlns="http://www.w3.org/2000/svg" xmlns:xlink="http://www.w3.org/1999/xlink">
    <g id="Web" stroke="none" stroke-width="1" fill="none" fill-rule="evenodd">
        <g id="Career-D" transform="translate(-291.000000, -1384.000000)" fill="#29B1CC">
            <g id="Group-2" transform="translate(0.000000, 1260.000000)">
                <path d="M296.822203,145.004131 L291.108624,146.972481 L293.16238,141.010991 C292.257223,139.374593 291.742651,137.496724 291.742651,135.5 C291.742651,129.148725 296.948986,124 303.371325,124 C309.793665,124 315,129.148725 315,135.5 C315,141.851275 309.793665,147 303.371325,147 C300.942401,147 298.687407,146.263553 296.822203,145.004131 Z M308.748466,139.760047 C308.787719,139.678028 308.802187,139.586148 308.790341,139.495409 C308.752387,139.205581 308.660322,138.53354 308.621334,138.249075 L308.616643,138.215331 C308.595447,138.061402 308.500402,137.926377 308.362456,137.853199 C308.050167,137.688836 306.93905,137.13424 305.752364,136.898278 C305.62459,136.872852 305.492661,136.900843 305.387681,136.975507 L304.327598,137.728649 C304.016095,137.596522 303.216078,137.208832 302.441011,136.433764 C301.673928,135.666681 301.280129,134.858157 301.146389,134.546373 L301.898997,133.486823 C301.973795,133.38171 302.001652,133.249915 301.976362,133.122276 C301.740535,131.935725 301.185804,130.824473 301.021441,130.512183 C300.948666,130.374375 300.813506,130.279194 300.659308,130.257997 L300.555524,130.243768 C300.242423,130.200665 299.647279,130.119131 299.378962,130.084296 C299.288223,130.072451 299.196343,130.086918 299.114457,130.126038 C298.840033,130.257277 298.323308,130.819745 298.104075,131.769792 C297.855332,132.846519 297.878552,135.093691 300.829818,138.044957 C303.780949,140.996088 306.028389,141.01931 307.105518,140.770436 C308.055161,140.551065 308.617227,140.034471 308.748466,139.760047 Z" id="Combined-Shape-Copy"></path>
            </g>
        </g>
    </g>
</svg>