<?xml version="1.0" encoding="UTF-8"?>
<svg width="26px" height="21px" viewBox="0 0 26 21" version="1.1" xmlns="http://www.w3.org/2000/svg" xmlns:xlink="http://www.w3.org/1999/xlink">
    <g id="Web" stroke="none" stroke-width="1" fill="none" fill-rule="evenodd">
        <g id="Career-D" transform="translate(-434.000000, -1385.000000)" fill="#29B1CC">
            <g id="Group-2" transform="translate(0.000000, 1260.000000)">
                <path d="M457.354394,130.915285 C457.354394,137.922679 451.988783,146 442.176381,146 C439.163247,146 436.36066,145.123059 434,143.61688 C434.417375,143.665681 434.84219,143.6923 435.272956,143.6923 C437.771254,143.6923 440.071651,142.844196 441.896643,141.423048 C439.562766,141.380902 437.593441,139.847365 436.914184,137.742263 C437.240793,137.805112 437.574842,137.834689 437.918562,137.834689 C438.404384,137.834689 438.875325,137.768142 439.323204,137.649097 C436.882193,137.164044 435.043809,135.021232 435.043809,132.450301 C435.043809,132.427379 435.043809,132.408894 435.044553,132.385972 C435.763241,132.781557 436.586088,133.022605 437.460268,133.045527 C436.030332,132.096863 435.087704,130.473117 435.087704,128.634942 C435.087704,127.663357 435.350331,126.751664 435.810112,125.970846 C438.440095,129.17693 442.370561,131.287948 446.805448,131.509031 C446.713194,131.120841 446.666323,130.716383 446.666323,130.298616 C446.666323,127.374247 449.055255,125 452.000687,125 C453.535525,125 454.921567,125.642548 455.895442,126.674026 C457.108879,126.435196 458.251638,125.995247 459.281312,125.385972 C458.88328,126.625964 458.038115,127.663357 456.936275,128.319214 C458.015795,128.194254 459.043237,127.908841 460,127.485159 C459.283544,128.546953 458.381091,129.480089 457.33877,130.229112 C457.348442,130.456111 457.354394,130.686067 457.354394,130.915285 Z" id="contact-twitter-copy"></path>
            </g>
        </g>
    </g>
</svg>