<?xml version="1.0" encoding="UTF-8"?>
<svg width="22px" height="22px" viewBox="0 0 22 22" version="1.1" xmlns="http://www.w3.org/2000/svg" xmlns:xlink="http://www.w3.org/1999/xlink">
    <g id="Web" stroke="none" stroke-width="1" fill="none" fill-rule="evenodd">
        <g id="Blog-DetailView-M" transform="translate(-211.000000, -1036.000000)" fill="#29B1CC">
            <path d="M233,1057.7333 L228.441534,1057.7333 L228.441534,1050.67336 C228.441534,1048.99013 228.412504,1046.8244 226.073078,1046.8244 C223.700353,1046.8244 223.33834,1048.65889 223.33834,1050.55337 L223.33834,1057.7333 L218.784996,1057.7333 L218.784996,1043.21627 L223.154772,1043.21627 L223.154772,1045.20116 L223.217953,1045.20116 C223.825863,1044.05957 225.313191,1042.8563 227.530524,1042.8563 C232.147049,1042.8563 233,1045.86195 233,1049.77175 L233,1057.7333 Z M213.645089,1041.23306 C212.180813,1041.23306 211,1040.06105 211,1038.61611 C211,1037.17201 212.180813,1036 213.645089,1036 C215.103388,1036 216.286762,1037.17201 216.286762,1038.61611 C216.286762,1040.06105 215.103388,1041.23306 213.645089,1041.23306 Z M211.362013,1043.21627 L215.925603,1043.21627 L215.925603,1057.7333 L211.362013,1057.7333 L211.362013,1043.21627 Z" id="Fill-5-Copy"></path>
        </g>
    </g>
</svg>